# xmcd
#
# Track frame offsets: 
#        150
#        9487
#        19352
#        30487
#        40449
#        51683
#        61502
#        72323
#        84825
#        94851
#        106141
#        116317
#        126903
#        136230
#        147737
#        158837
#        170932
#        180695
#        190660
#        200792
#        211479
#        221542
#        232877
#        243690
#        256622
#        265960
#        275685
#        286122
#        294846
#        304282
#
# Disc length: 4192 seconds
#
# Revision: 0
# Processed by: cddbd v1.5.2PL0 Copyright (c) Steve Scherf et al.
# Submitted via: ExactAudioCopy v1.3
#
DISCID=c2105e1e
DTITLE=Various Artist - Soul City Philadelphia CD2
DYEAR=1900
DGENRE=Soul
TTITLE0=Majors - A Wonderful Dream
TTITLE1=Majors - Time Will Tell
TTITLE2=Majors - She's a Troublemaker
TTITLE3=Majors - A Little Bit Now (A Little Bit Later)
TTITLE4=Dreamlovers - When We Get Married
TTITLE5=Dreamlovers - Just Because
TTITLE6=Dreamlovers - Welcome Home
TTITLE7=Dreamlovers - Let Them Love (and Be Loved)
TTITLE8=Dreamlovers - I Miss You
TTITLE9=Solomon Burke - It's All Right
TTITLE10=Solomon Burke - Be Bop Grandma
TTITLE11=Bobby Peterson Quintet - One Day
TTITLE12=Bobby Peterson Quintet - Mama Get Your Hammer
TTITLE13=Donnie Elbert - Will You Ever Be Mine
TTITLE14=Donnie Elbert - Half as Old
TTITLE15=Donnie Elbert - Baby Let Me Love You Tonite
TTITLE16=Lee Andrews and the Hearts - Maybe You'll Be There
TTITLE17=Lee Andrews and the Hearts - All I Ask is Love
TTITLE18=Lee Andrews - I Wonder
TTITLE19=Chubby Checker - Toot
TTITLE20=Chubby Checker - Dance the Mess Around
TTITLE21=Chubby Checker - The Fly
TTITLE22=Yvonne Baker and the Sensations - Eyes
TTITLE23=Yvonne Baker and the Sensations - No Changes
TTITLE24=Bunny Sigler - I Won't Cry
TTITLE25=Bunny Sigler - Come on Home
TTITLE26=Larks - It's Unbelievable
TTITLE27=Larks - I Can't Believe it
TTITLE28=Boss-Tones - Mope-itty Hope
TTITLE29=Boss-Tones - Wings of an Angel
EXTD=
EXTT0=
EXTT1=
EXTT2=
EXTT3=
EXTT4=
EXTT5=
EXTT6=
EXTT7=
EXTT8=
EXTT9=
EXTT10=
EXTT11=
EXTT12=
EXTT13=
EXTT14=
EXTT15=
EXTT16=
EXTT17=
EXTT18=
EXTT19=
EXTT20=
EXTT21=
EXTT22=
EXTT23=
EXTT24=
EXTT25=
EXTT26=
EXTT27=
EXTT28=
EXTT29=
PLAYORDER=
